<?xml version="1.0" standalone="no"?>
<!DOCTYPE svg PUBLIC "-//W3C//DTD SVG 20010904//EN"
 "http://www.w3.org/TR/2001/REC-SVG-20010904/DTD/svg10.dtd">
<svg version="1.0" xmlns="http://www.w3.org/2000/svg"
 width="350.000000pt" height="350.000000pt" viewBox="0 0 350.000000 350.000000"
 preserveAspectRatio="xMidYMid meet">

<g transform="translate(0.000000,350.000000) scale(0.100000,-0.100000)"
fill="#000000" stroke="none">
<path d="M0 1750 l0 -1750 1750 0 1750 0 0 1750 0 1750 -1750 0 -1750 0 0
-1750z m1430 107 c0 -1334 3 -1276 -64 -1343 -62 -62 -92 -65 -573 -62 -415 3
-429 4 -468 24 -49 27 -69 48 -92 99 -16 36 -18 80 -21 398 l-3 357 195 0 196
0 0 -270 0 -270 220 0 220 0 0 1135 0 1135 195 0 195 0 0 -1203z m729 1016
c29 -104 122 -432 207 -730 85 -297 155 -549 155 -560 1 -16 2 -16 6 2 4 19
110 392 324 1148 l93 327 183 0 183 0 0 -1305 0 -1305 -185 0 -186 0 3 744 c2
409 2 743 1 742 -2 -2 -109 -420 -245 -958 l-73 -288 -97 0 c-53 0 -99 3 -101
8 -5 7 -105 395 -242 937 -41 165 -76 303 -78 308 -1 4 -1 -330 1 -743 l3
-750 -185 0 -186 0 0 1305 0 1305 183 0 183 0 53 -187z"/>
</g>
</svg>
